<?xml version="1.0" encoding="UTF-8" standalone="no"?>
<svg width="596px" height="92px" viewBox="0 0 596 92" version="1.1" xmlns="http://www.w3.org/2000/svg" xmlns:xlink="http://www.w3.org/1999/xlink" xmlns:sketch="http://www.bohemiancoding.com/sketch/ns">
    <!-- Generator: Sketch 3.4 (15575) - http://www.bohemiancoding.com/sketch -->
    <title>fitsmall 20-18-15@1x</title>
    <desc>Created with Sketch.</desc>
    <defs></defs>
    <g id="Page-1" stroke="none" stroke-width="1" fill="none" fill-rule="evenodd" sketch:type="MSPage">
        <g id="fitsmall-20-18-15" sketch:type="MSLayerGroup">
            <path d="M2.743,26.312 L81.733,7.205 C83.277,6.831 84.844,7.788 85.218,9.332 L87.738,19.751 C87.145,20.254 86.532,20.754 85.896,21.251 C77.49,27.817 65.39,33.688 51.281,37.548 L50.821,35.647 L43.238,37.482 L43.698,39.382 C29.383,42.398 15.938,42.706 5.46,40.709 C4.668,40.557 3.893,40.393 3.136,40.216 L0.616,29.797 C0.242,28.254 1.2,26.686 2.743,26.312 L2.743,26.312 Z M88.265,21.928 L97.143,58.63 C97.517,60.174 96.56,61.742 95.016,62.115 L16.026,81.223 C14.482,81.596 12.915,80.639 12.541,79.096 L3.663,42.393 C4.133,42.495 4.607,42.592 5.089,42.684 C15.828,44.731 29.575,44.42 44.171,41.34 L44.54,42.864 L52.123,41.029 L51.754,39.506 C66.144,35.574 78.513,29.567 87.129,22.837 C87.516,22.536 87.893,22.233 88.265,21.928 L88.265,21.928 Z" id="Fill-2" fill="#007AB4" sketch:type="MSShapeGroup"></path>
            <path d="M25.56,7.768 L52.964,1.139 C55.427,0.543 57.909,1.008 59.923,2.238 C61.937,3.467 63.485,5.462 64.081,7.925 L64.661,10.324 L61.185,11.165 L60.605,8.766 C60.241,7.262 59.293,6.042 58.06,5.29 C56.827,4.537 55.309,4.252 53.805,4.616 L26.4,11.245 C24.896,11.609 23.676,12.556 22.924,13.789 C22.171,15.022 21.886,16.541 22.25,18.045 L22.829,20.443 L19.353,21.284 L18.773,18.886 C18.177,16.422 18.642,13.94 19.872,11.926 C21.101,9.912 23.096,8.364 25.56,7.768" id="Fill-3" fill="#007AB4" sketch:type="MSShapeGroup"></path>
            <path d="M116.738,59.263 C116.738,62.019 118.917,64.198 121.673,64.198 C124.429,64.198 126.608,62.019 126.608,59.263 L126.608,46.445 L143.912,46.445 C146.411,46.445 148.398,44.459 148.398,41.959 C148.398,39.46 146.411,37.473 143.912,37.473 L126.608,37.473 L126.608,27.924 L146.796,27.924 C149.295,27.924 151.282,25.937 151.282,23.438 C151.282,20.939 149.295,18.952 146.796,18.952 L121.673,18.952 C118.917,18.952 116.738,21.131 116.738,23.887 L116.738,59.263" id="Fill-4" fill="#007AB4" sketch:type="MSShapeGroup"></path>
            <path d="M153.589,21.387 C153.589,24.207 155.961,26.001 159.037,26.001 C162.113,26.001 164.484,24.207 164.484,21.387 L164.484,21.259 C164.484,18.439 162.113,16.709 159.037,16.709 C155.961,16.709 153.589,18.439 153.589,21.259 L153.589,21.387 L153.589,21.387 Z M154.166,59.327 C154.166,62.019 156.345,64.198 159.037,64.198 C161.729,64.198 163.908,62.019 163.908,59.327 L163.908,33.948 C163.908,31.257 161.729,29.078 159.037,29.078 C156.345,29.078 154.166,31.257 154.166,33.948 L154.166,59.327 L154.166,59.327 Z" id="Fill-5" fill="#007AB4" sketch:type="MSShapeGroup"></path>
            <path d="M180.635,64.39 C182.75,64.39 184.416,64.134 186.211,63.429 C187.556,62.916 188.71,61.506 188.71,59.776 C188.71,57.533 186.851,55.738 184.672,55.738 C184.48,55.738 183.839,55.802 183.519,55.802 C181.34,55.802 180.379,54.713 180.379,52.47 L180.379,37.794 L184.672,37.794 C186.98,37.794 188.838,35.935 188.838,33.628 C188.838,31.321 186.98,29.462 184.672,29.462 L180.379,29.462 L180.379,25.168 C180.379,22.477 178.2,20.298 175.508,20.298 C172.816,20.298 170.637,22.477 170.637,25.168 L170.637,29.462 L170.317,29.462 C168.01,29.462 166.151,31.321 166.151,33.628 C166.151,35.935 168.01,37.794 170.317,37.794 L170.637,37.794 L170.637,54.072 C170.637,62.019 174.675,64.39 180.635,64.39" id="Fill-6" fill="#007AB4" sketch:type="MSShapeGroup"></path>
            <path d="M208.577,64.454 C218.255,64.454 225.048,59.455 225.048,50.547 L225.048,50.419 C225.048,42.6 219.921,39.332 210.82,36.961 C203.066,34.974 201.143,34.012 201.143,31.064 L201.143,30.936 C201.143,28.757 203.13,27.027 206.911,27.027 C209.987,27.027 213.063,28.116 216.332,30.039 C217.101,30.488 217.87,30.744 218.831,30.744 C221.395,30.744 223.446,28.757 223.446,26.194 C223.446,24.271 222.356,22.925 221.267,22.284 C217.229,19.721 212.487,18.311 207.039,18.311 C197.875,18.311 191.338,23.694 191.338,31.833 L191.338,31.962 C191.338,40.87 197.17,43.369 206.206,45.676 C213.704,47.599 215.242,48.881 215.242,51.38 L215.242,51.508 C215.242,54.136 212.807,55.738 208.77,55.738 C204.412,55.738 200.694,54.2 197.298,51.701 C196.657,51.252 195.76,50.803 194.478,50.803 C191.914,50.803 189.864,52.79 189.864,55.354 C189.864,56.892 190.633,58.302 191.722,59.071 C196.721,62.66 202.681,64.454 208.577,64.454" id="Fill-7" fill="#007AB4" sketch:type="MSShapeGroup"></path>
            <path d="M228.573,59.327 C228.573,62.019 230.752,64.198 233.444,64.198 C236.135,64.198 238.314,62.019 238.314,59.327 L238.314,44.651 C238.314,40.037 240.557,37.665 244.21,37.665 C247.863,37.665 249.914,40.037 249.914,44.651 L249.914,59.327 C249.914,62.019 252.093,64.198 254.785,64.198 C257.477,64.198 259.656,62.019 259.656,59.327 L259.656,44.651 C259.656,40.037 261.899,37.665 265.552,37.665 C269.205,37.665 271.256,40.037 271.256,44.651 L271.256,59.327 C271.256,62.019 273.435,64.198 276.126,64.198 C278.818,64.198 280.997,62.019 280.997,59.327 L280.997,41.447 C280.997,33.179 276.639,28.821 269.397,28.821 C264.719,28.821 261.13,30.744 258.118,34.269 C256.323,30.808 252.926,28.821 248.44,28.821 C243.505,28.821 240.557,31.449 238.314,34.333 L238.314,33.948 C238.314,31.257 236.135,29.078 233.444,29.078 C230.752,29.078 228.573,31.257 228.573,33.948 L228.573,59.327" id="Fill-8" fill="#007AB4" sketch:type="MSShapeGroup"></path>
            <path d="M295.16,64.454 C299.903,64.454 303.171,62.724 305.543,60.096 L305.543,60.16 C305.543,62.211 307.401,64.198 310.221,64.198 C312.849,64.198 314.964,62.147 314.964,59.52 L314.964,43.882 C314.964,39.268 313.81,35.487 311.246,32.923 C308.811,30.488 304.966,29.078 299.647,29.078 C295.096,29.078 291.764,29.719 288.687,30.872 C287.149,31.449 286.06,32.923 286.06,34.653 C286.06,36.896 287.854,38.627 290.097,38.627 C290.546,38.627 290.931,38.563 291.507,38.37 C293.366,37.794 295.545,37.409 298.237,37.409 C303.107,37.409 305.607,39.652 305.607,43.69 L305.607,44.267 C303.171,43.433 300.672,42.857 297.211,42.857 C289.072,42.857 283.368,46.317 283.368,53.816 L283.368,53.944 C283.368,60.737 288.687,64.454 295.16,64.454 L295.16,64.454 Z M298.108,57.725 C294.968,57.725 292.789,56.187 292.789,53.559 L292.789,53.431 C292.789,50.355 295.353,48.689 299.518,48.689 C301.89,48.689 304.069,49.201 305.735,49.97 L305.735,51.701 C305.735,55.226 302.659,57.725 298.108,57.725 L298.108,57.725 Z" id="Fill-9" fill="#007AB4" sketch:type="MSShapeGroup"></path>
            <path d="M319.771,59.327 C319.771,62.019 321.95,64.198 324.641,64.198 C327.333,64.198 329.512,62.019 329.512,59.327 L329.512,21.515 C329.512,18.824 327.333,16.645 324.641,16.645 C321.95,16.645 319.771,18.824 319.771,21.515 L319.771,59.327" id="Fill-10" fill="#007AB4" sketch:type="MSShapeGroup"></path>
            <path d="M335.088,59.327 C335.088,62.019 337.267,64.198 339.958,64.198 C342.65,64.198 344.829,62.019 344.829,59.327 L344.829,21.515 C344.829,18.824 342.65,16.645 339.958,16.645 C337.267,16.645 335.088,18.824 335.088,21.515 L335.088,59.327" id="Fill-11" fill="#007AB4" sketch:type="MSShapeGroup"></path>
            <path d="M350.982,58.879 C350.982,61.634 353.161,63.813 355.917,63.813 L372.323,63.813 C382.449,63.813 389.114,59.712 389.114,51.508 L389.114,51.38 C389.114,45.356 385.91,42.344 380.719,40.357 C383.923,38.563 386.615,35.743 386.615,30.68 L386.615,30.552 C386.615,27.476 385.589,24.976 383.538,22.925 C380.975,20.362 376.937,18.952 371.81,18.952 L355.917,18.952 C353.161,18.952 350.982,21.131 350.982,23.887 L350.982,58.879 L350.982,58.879 Z M360.595,37.089 L360.595,27.604 L370.336,27.604 C374.502,27.604 376.809,29.27 376.809,32.218 L376.809,32.346 C376.809,35.679 374.053,37.089 369.695,37.089 L360.595,37.089 L360.595,37.089 Z M360.595,55.161 L360.595,45.292 L372.003,45.292 C377.066,45.292 379.309,47.151 379.309,50.163 L379.309,50.291 C379.309,53.623 376.681,55.161 372.323,55.161 L360.595,55.161 L360.595,55.161 Z" id="Fill-12" fill="#007AB4" sketch:type="MSShapeGroup"></path>
            <path d="M423.402,33.948 C423.402,31.257 421.222,29.078 418.531,29.078 C415.839,29.078 413.66,31.257 413.66,33.948 L413.66,48.625 C413.66,53.239 411.289,55.61 407.572,55.61 C403.855,55.61 401.676,53.239 401.676,48.625 L401.676,33.948 C401.676,31.257 399.497,29.078 396.805,29.078 C394.113,29.078 391.934,31.257 391.934,33.948 L391.934,51.701 C391.934,59.584 396.228,64.454 403.598,64.454 C408.533,64.454 411.417,61.827 413.66,58.943 L413.66,59.327 C413.66,62.019 415.839,64.198 418.531,64.198 C421.222,64.198 423.402,62.019 423.402,59.327 L423.402,33.948" id="Fill-13" fill="#007AB4" sketch:type="MSShapeGroup"></path>
            <path d="M440.129,64.454 C447.563,64.454 453.267,60.993 453.267,53.367 L453.267,53.239 C453.267,46.958 447.691,44.651 442.884,43.049 C439.167,41.767 435.899,40.87 435.899,38.947 L435.899,38.819 C435.899,37.473 437.116,36.448 439.488,36.448 C441.538,36.448 444.166,37.281 446.922,38.627 C447.563,38.947 448.011,39.075 448.716,39.075 C450.895,39.075 452.626,37.409 452.626,35.23 C452.626,33.564 451.728,32.282 450.319,31.577 C446.986,29.911 443.269,28.95 439.68,28.95 C432.758,28.95 427.119,32.859 427.119,39.845 L427.119,39.973 C427.119,46.638 432.566,48.881 437.373,50.291 C441.154,51.444 444.487,52.149 444.487,54.264 L444.487,54.392 C444.487,55.931 443.205,56.956 440.385,56.956 C437.629,56.956 434.361,55.931 431.092,53.88 C430.579,53.559 429.874,53.367 429.169,53.367 C426.99,53.367 425.324,55.033 425.324,57.212 C425.324,58.75 426.157,59.904 427.183,60.545 C431.348,63.237 435.899,64.454 440.129,64.454" id="Fill-14" fill="#007AB4" sketch:type="MSShapeGroup"></path>
            <path d="M456.087,21.387 C456.087,24.207 458.458,26.001 461.534,26.001 C464.61,26.001 466.982,24.207 466.982,21.387 L466.982,21.259 C466.982,18.439 464.61,16.709 461.534,16.709 C458.458,16.709 456.087,18.439 456.087,21.259 L456.087,21.387 L456.087,21.387 Z M456.664,59.327 C456.664,62.019 458.842,64.198 461.534,64.198 C464.226,64.198 466.405,62.019 466.405,59.327 L466.405,33.948 C466.405,31.257 464.226,29.078 461.534,29.078 C458.842,29.078 456.664,31.257 456.664,33.948 L456.664,59.327 L456.664,59.327 Z" id="Fill-15" fill="#007AB4" sketch:type="MSShapeGroup"></path>
            <path d="M471.532,59.327 C471.532,62.019 473.711,64.198 476.403,64.198 C479.094,64.198 481.273,62.019 481.273,59.327 L481.273,44.651 C481.273,40.037 483.645,37.665 487.362,37.665 C491.079,37.665 493.258,40.037 493.258,44.651 L493.258,59.327 C493.258,62.019 495.437,64.198 498.129,64.198 C500.82,64.198 502.999,62.019 502.999,59.327 L502.999,41.575 C502.999,33.692 498.705,28.821 491.335,28.821 C486.4,28.821 483.516,31.449 481.273,34.333 L481.273,33.948 C481.273,31.257 479.094,29.078 476.403,29.078 C473.711,29.078 471.532,31.257 471.532,33.948 L471.532,59.327" id="Fill-16" fill="#007AB4" sketch:type="MSShapeGroup"></path>
            <path d="M515.304,43.946 C516.073,39.524 518.701,36.64 522.739,36.64 C526.84,36.64 529.404,39.588 529.981,43.946 L515.304,43.946 L515.304,43.946 Z M535.62,60.417 C536.325,59.776 536.902,58.814 536.902,57.533 C536.902,55.354 535.3,53.687 533.121,53.687 C532.095,53.687 531.454,53.944 530.75,54.457 C528.763,55.931 526.52,56.764 523.828,56.764 C519.47,56.764 516.394,54.457 515.432,50.034 L534.723,50.034 C537.286,50.034 539.273,48.176 539.273,45.356 C539.273,38.242 534.21,28.821 522.739,28.821 C512.741,28.821 505.755,36.896 505.755,46.702 L505.755,46.83 C505.755,57.341 513.382,64.582 523.7,64.582 C528.699,64.582 532.608,62.98 535.62,60.417 L535.62,60.417 Z" id="Fill-17" fill="#007AB4" sketch:type="MSShapeGroup"></path>
            <path d="M554.719,64.454 C562.153,64.454 567.857,60.993 567.857,53.367 L567.857,53.239 C567.857,46.958 562.281,44.651 557.474,43.049 C553.757,41.767 550.489,40.87 550.489,38.947 L550.489,38.819 C550.489,37.473 551.706,36.448 554.078,36.448 C556.128,36.448 558.756,37.281 561.512,38.627 C562.153,38.947 562.601,39.075 563.306,39.075 C565.485,39.075 567.216,37.409 567.216,35.23 C567.216,33.564 566.318,32.282 564.909,31.577 C561.576,29.911 557.859,28.95 554.27,28.95 C547.348,28.95 541.709,32.859 541.709,39.845 L541.709,39.973 C541.709,46.638 547.156,48.881 551.963,50.291 C555.744,51.444 559.077,52.149 559.077,54.264 L559.077,54.392 C559.077,55.931 557.795,56.956 554.975,56.956 C552.219,56.956 548.951,55.931 545.682,53.88 C545.169,53.559 544.464,53.367 543.759,53.367 C541.58,53.367 539.914,55.033 539.914,57.212 C539.914,58.75 540.747,59.904 541.773,60.545 C545.938,63.237 550.489,64.454 554.719,64.454" id="Fill-18" fill="#007AB4" sketch:type="MSShapeGroup"></path>
            <path d="M582.213,64.454 C589.647,64.454 595.351,60.993 595.351,53.367 L595.351,53.239 C595.351,46.958 589.775,44.651 584.968,43.049 C581.251,41.767 577.983,40.87 577.983,38.947 L577.983,38.819 C577.983,37.473 579.2,36.448 581.572,36.448 C583.622,36.448 586.25,37.281 589.006,38.627 C589.647,38.947 590.095,39.075 590.8,39.075 C592.979,39.075 594.71,37.409 594.71,35.23 C594.71,33.564 593.812,32.282 592.402,31.577 C589.07,29.911 585.353,28.95 581.764,28.95 C574.842,28.95 569.203,32.859 569.203,39.845 L569.203,39.973 C569.203,46.638 574.65,48.881 579.457,50.291 C583.238,51.444 586.571,52.149 586.571,54.264 L586.571,54.392 C586.571,55.931 585.289,56.956 582.469,56.956 C579.713,56.956 576.445,55.931 573.176,53.88 C572.663,53.559 571.958,53.367 571.253,53.367 C569.074,53.367 567.408,55.033 567.408,57.212 C567.408,58.75 568.241,59.904 569.267,60.545 C573.432,63.237 577.983,64.454 582.213,64.454" id="Fill-19" fill="#007AB4" sketch:type="MSShapeGroup"></path>
            <path d="M125.856,87.906 C128.549,87.906 130.802,86.896 132.512,85.576 C132.796,85.343 132.978,85.058 132.978,84.799 L132.978,78.868 C132.978,78.506 132.667,78.195 132.304,78.195 L126.037,78.195 C125.7,78.195 125.415,78.48 125.415,78.816 C125.415,79.153 125.7,79.438 126.037,79.438 L131.683,79.438 L131.683,84.643 C130.362,85.757 128.212,86.715 125.907,86.715 C121.064,86.715 118.138,83.219 118.138,78.531 L118.138,78.48 C118.138,74.103 121.22,70.374 125.623,70.374 C128.135,70.374 129.663,71.125 131.061,72.212 C131.216,72.342 131.372,72.394 131.476,72.394 C131.838,72.394 132.149,72.083 132.149,71.72 C132.149,71.487 132.045,71.306 131.89,71.176 C130.206,69.907 128.419,69.156 125.7,69.156 C120.287,69.156 116.739,73.637 116.739,78.531 L116.739,78.583 C116.739,83.685 120.132,87.906 125.856,87.906" id="Fill-20" fill="#010604" sketch:type="MSShapeGroup"></path>
            <path d="M137.303,80.37 C137.536,77.444 139.556,75.242 142.171,75.242 C145.202,75.242 146.73,77.703 146.911,80.37 L137.303,80.37 L137.303,80.37 Z M147.584,85.757 C147.74,85.602 147.791,85.446 147.791,85.317 C147.791,84.98 147.507,84.721 147.17,84.721 C146.989,84.721 146.859,84.799 146.755,84.902 C145.694,85.938 144.373,86.715 142.482,86.715 C139.892,86.715 137.536,84.799 137.303,81.51 L147.662,81.51 C147.973,81.51 148.284,81.225 148.284,80.914 C148.284,77.133 145.927,74.077 142.223,74.077 C138.649,74.077 135.956,77.133 135.956,80.966 L135.956,81.018 C135.956,85.136 138.96,87.906 142.431,87.906 C144.813,87.906 146.289,87.052 147.584,85.757 L147.584,85.757 Z" id="Fill-21" fill="#010604" sketch:type="MSShapeGroup"></path>
            <path d="M155.69,87.829 C156.441,87.829 157.037,87.673 157.555,87.492 C157.814,87.389 157.969,87.207 157.969,86.948 C157.969,86.638 157.684,86.379 157.399,86.379 C157.218,86.379 156.804,86.638 155.897,86.638 C154.37,86.638 153.256,85.964 153.256,84.074 L153.256,75.553 L157.399,75.553 C157.71,75.553 157.995,75.294 157.995,74.983 C157.995,74.673 157.71,74.388 157.399,74.388 L153.256,74.388 L153.256,70.71 C153.256,70.348 152.971,70.063 152.608,70.063 C152.246,70.063 151.987,70.348 151.987,70.71 L151.987,74.388 L150.563,74.388 C150.252,74.388 149.967,74.647 149.967,74.958 C149.967,75.268 150.252,75.553 150.563,75.553 L151.987,75.553 L151.987,84.203 C151.987,86.715 153.644,87.829 155.69,87.829" id="Fill-22" fill="#010604" sketch:type="MSShapeGroup"></path>
            <path d="M175.606,87.026 C175.606,87.389 175.917,87.699 176.279,87.699 C176.642,87.699 176.953,87.389 176.953,87.026 L176.953,80.396 L183.971,70.529 C184.075,70.374 184.178,70.192 184.178,70.011 C184.178,69.674 183.842,69.363 183.505,69.363 C183.22,69.363 183.065,69.545 182.909,69.752 L176.305,79.205 L169.727,69.752 C169.572,69.519 169.39,69.363 169.105,69.363 C168.743,69.363 168.406,69.674 168.406,70.037 C168.406,70.166 168.458,70.322 168.536,70.451 L175.606,80.422 L175.606,87.026" id="Fill-23" fill="#010604" sketch:type="MSShapeGroup"></path>
            <path d="M190.264,87.906 C194.201,87.906 197.075,84.695 197.075,80.992 L197.075,80.94 C197.075,77.237 194.227,74.077 190.316,74.077 C186.379,74.077 183.505,77.288 183.505,80.992 L183.505,81.044 C183.505,84.747 186.354,87.906 190.264,87.906 L190.264,87.906 Z M190.316,86.715 C187.26,86.715 184.877,84.177 184.877,80.992 L184.877,80.94 C184.877,77.832 187.131,75.268 190.264,75.268 C193.32,75.268 195.703,77.806 195.703,80.992 L195.703,81.044 C195.703,84.151 193.45,86.715 190.316,86.715 L190.316,86.715 Z" id="Fill-24" fill="#010604" sketch:type="MSShapeGroup"></path>
            <path d="M211.345,74.931 C211.345,74.543 211.06,74.284 210.698,74.284 C210.335,74.284 210.076,74.543 210.076,74.931 L210.076,82.028 C210.076,84.773 208.082,86.741 205.492,86.741 C202.825,86.741 201.297,84.954 201.297,82.235 L201.297,74.931 C201.297,74.543 201.012,74.284 200.649,74.284 C200.287,74.284 200.028,74.543 200.028,74.931 L200.028,82.468 C200.028,85.627 201.97,87.906 205.311,87.906 C207.72,87.906 209.196,86.689 210.076,85.136 L210.076,87.052 C210.076,87.44 210.361,87.699 210.724,87.699 C211.086,87.699 211.345,87.414 211.345,87.052 L211.345,74.931" id="Fill-25" fill="#010604" sketch:type="MSShapeGroup"></path>
            <path d="M215.463,87.052 C215.463,87.44 215.748,87.699 216.111,87.699 C216.473,87.699 216.732,87.414 216.732,87.052 L216.732,82.183 C216.732,77.936 219.244,75.838 222.041,75.579 C222.456,75.553 222.715,75.242 222.715,74.88 C222.715,74.491 222.43,74.181 222.041,74.181 C220.177,74.181 217.872,75.579 216.732,78.143 L216.732,74.931 C216.732,74.543 216.447,74.284 216.085,74.284 C215.722,74.284 215.463,74.569 215.463,74.931 L215.463,87.052" id="Fill-26" fill="#010604" sketch:type="MSShapeGroup"></path>
            <path d="M233.877,86.923 C233.877,87.285 234.187,87.596 234.55,87.596 L241.75,87.596 C245.66,87.596 248.25,85.679 248.25,82.649 L248.25,82.597 C248.25,80.085 246.334,78.842 244.158,78.272 C245.635,77.677 247.24,76.434 247.24,73.973 L247.24,73.921 C247.24,72.782 246.826,71.824 246.075,71.073 C245.065,70.063 243.407,69.467 241.361,69.467 L234.55,69.467 C234.187,69.467 233.877,69.778 233.877,70.14 L233.877,86.923 L233.877,86.923 Z M235.224,77.832 L235.224,70.71 L241.335,70.71 C244.236,70.71 245.868,72.057 245.868,74.051 L245.868,74.103 C245.868,76.511 243.925,77.832 241.206,77.832 L235.224,77.832 L235.224,77.832 Z M235.224,86.353 L235.224,79.075 L241.361,79.075 C244.935,79.075 246.878,80.37 246.878,82.597 L246.878,82.649 C246.878,84.928 244.909,86.353 241.802,86.353 L235.224,86.353 L235.224,86.353 Z" id="Fill-27" fill="#010604" sketch:type="MSShapeGroup"></path>
            <path d="M262.65,74.931 C262.65,74.543 262.365,74.284 262.002,74.284 C261.64,74.284 261.38,74.543 261.38,74.931 L261.38,82.028 C261.38,84.773 259.386,86.741 256.797,86.741 C254.129,86.741 252.601,84.954 252.601,82.235 L252.601,74.931 C252.601,74.543 252.316,74.284 251.954,74.284 C251.591,74.284 251.332,74.543 251.332,74.931 L251.332,82.468 C251.332,85.627 253.274,87.906 256.615,87.906 C259.024,87.906 260.5,86.689 261.38,85.136 L261.38,87.052 C261.38,87.44 261.665,87.699 262.028,87.699 C262.391,87.699 262.65,87.414 262.65,87.052 L262.65,74.931" id="Fill-28" fill="#010604" sketch:type="MSShapeGroup"></path>
            <path d="M271.041,87.855 C273.579,87.855 275.599,86.353 275.599,83.996 L275.599,83.944 C275.599,81.613 273.371,80.836 271.248,80.241 C269.357,79.697 267.57,79.153 267.57,77.677 L267.57,77.625 C267.57,76.304 268.762,75.32 270.574,75.32 C271.843,75.32 273.113,75.735 274.252,76.408 C274.33,76.46 274.459,76.511 274.615,76.511 C274.951,76.511 275.236,76.227 275.236,75.89 C275.236,75.605 275.055,75.424 274.9,75.32 C273.63,74.595 272.051,74.129 270.626,74.129 C268.062,74.129 266.275,75.657 266.275,77.78 L266.275,77.832 C266.275,80.189 268.658,80.836 270.807,81.458 C272.646,81.976 274.304,82.546 274.304,84.1 L274.304,84.151 C274.304,85.679 272.905,86.663 271.118,86.663 C269.539,86.663 268.088,86.146 266.716,85.161 C266.612,85.084 266.457,85.032 266.301,85.032 C265.965,85.032 265.68,85.317 265.68,85.653 C265.68,85.861 265.809,86.068 265.913,86.146 C267.26,87.156 269.254,87.855 271.041,87.855" id="Fill-29" fill="#010604" sketch:type="MSShapeGroup"></path>
            <path d="M278.965,70.296 C278.965,70.736 279.302,71.073 279.742,71.073 C280.182,71.073 280.545,70.736 280.545,70.296 L280.545,69.855 C280.545,69.415 280.182,69.078 279.742,69.078 C279.302,69.078 278.965,69.415 278.965,69.855 L278.965,70.296 L278.965,70.296 Z M279.121,87.052 C279.121,87.44 279.405,87.699 279.768,87.699 C280.131,87.699 280.39,87.44 280.39,87.052 L280.39,74.931 C280.39,74.543 280.105,74.284 279.742,74.284 C279.38,74.284 279.121,74.569 279.121,74.931 L279.121,87.052 L279.121,87.052 Z" id="Fill-30" fill="#010604" sketch:type="MSShapeGroup"></path>
            <path d="M284.689,87.052 C284.689,87.44 284.974,87.699 285.336,87.699 C285.699,87.699 285.958,87.44 285.958,87.052 L285.958,79.956 C285.958,77.211 287.952,75.242 290.542,75.242 C293.209,75.242 294.737,77.029 294.737,79.749 L294.737,87.052 C294.737,87.44 295.022,87.699 295.385,87.699 C295.747,87.699 296.006,87.44 296.006,87.052 L296.006,79.516 C296.006,76.356 294.064,74.077 290.723,74.077 C288.314,74.077 286.838,75.294 285.958,76.848 L285.958,74.931 C285.958,74.543 285.673,74.284 285.31,74.284 C284.947,74.284 284.689,74.569 284.689,74.931 L284.689,87.052" id="Fill-31" fill="#010604" sketch:type="MSShapeGroup"></path>
            <path d="M300.305,80.37 C300.538,77.444 302.559,75.242 305.174,75.242 C308.204,75.242 309.732,77.703 309.914,80.37 L300.305,80.37 L300.305,80.37 Z M310.587,85.757 C310.742,85.602 310.794,85.446 310.794,85.317 C310.794,84.98 310.509,84.721 310.172,84.721 C309.991,84.721 309.862,84.799 309.758,84.902 C308.696,85.938 307.375,86.715 305.485,86.715 C302.895,86.715 300.538,84.799 300.305,81.51 L310.664,81.51 C310.975,81.51 311.286,81.225 311.286,80.914 C311.286,77.133 308.929,74.077 305.226,74.077 C301.652,74.077 298.959,77.133 298.959,80.966 L298.959,81.018 C298.959,85.136 301.963,87.906 305.433,87.906 C307.816,87.906 309.292,87.052 310.587,85.757 L310.587,85.757 Z" id="Fill-32" fill="#010604" sketch:type="MSShapeGroup"></path>
            <path d="M318.564,87.855 C321.101,87.855 323.122,86.353 323.122,83.996 L323.122,83.944 C323.122,81.613 320.894,80.836 318.771,80.241 C316.88,79.697 315.093,79.153 315.093,77.677 L315.093,77.625 C315.093,76.304 316.284,75.32 318.097,75.32 C319.366,75.32 320.635,75.735 321.775,76.408 C321.853,76.46 321.982,76.511 322.137,76.511 C322.474,76.511 322.759,76.227 322.759,75.89 C322.759,75.605 322.578,75.424 322.422,75.32 C321.153,74.595 319.574,74.129 318.149,74.129 C315.585,74.129 313.798,75.657 313.798,77.78 L313.798,77.832 C313.798,80.189 316.181,80.836 318.33,81.458 C320.169,81.976 321.827,82.546 321.827,84.1 L321.827,84.151 C321.827,85.679 320.428,86.663 318.641,86.663 C317.061,86.663 315.611,86.146 314.238,85.161 C314.135,85.084 313.979,85.032 313.824,85.032 C313.488,85.032 313.203,85.317 313.203,85.653 C313.203,85.861 313.332,86.068 313.436,86.146 C314.782,87.156 316.777,87.855 318.564,87.855" id="Fill-33" fill="#010604" sketch:type="MSShapeGroup"></path>
            <path d="M330.477,87.855 C333.015,87.855 335.035,86.353 335.035,83.996 L335.035,83.944 C335.035,81.613 332.807,80.836 330.684,80.241 C328.793,79.697 327.006,79.153 327.006,77.677 L327.006,77.625 C327.006,76.304 328.198,75.32 330.01,75.32 C331.279,75.32 332.549,75.735 333.688,76.408 C333.766,76.46 333.895,76.511 334.051,76.511 C334.387,76.511 334.672,76.227 334.672,75.89 C334.672,75.605 334.491,75.424 334.336,75.32 C333.066,74.595 331.487,74.129 330.062,74.129 C327.498,74.129 325.711,75.657 325.711,77.78 L325.711,77.832 C325.711,80.189 328.094,80.836 330.243,81.458 C332.082,81.976 333.74,82.546 333.74,84.1 L333.74,84.151 C333.74,85.679 332.341,86.663 330.554,86.663 C328.975,86.663 327.524,86.146 326.152,85.161 C326.048,85.084 325.892,85.032 325.737,85.032 C325.401,85.032 325.116,85.317 325.116,85.653 C325.116,85.861 325.245,86.068 325.349,86.146 C326.696,87.156 328.69,87.855 330.477,87.855" id="Fill-34" fill="#010604" sketch:type="MSShapeGroup"></path>
            <path d="M347.31,87.026 C347.31,87.389 347.621,87.699 347.984,87.699 C348.346,87.699 348.657,87.389 348.657,87.026 L348.657,70.037 C348.657,69.674 348.346,69.363 347.984,69.363 C347.621,69.363 347.31,69.674 347.31,70.037 L347.31,87.026" id="Fill-35" fill="#010604" sketch:type="MSShapeGroup"></path>
            <path d="M353.241,87.052 C353.241,87.44 353.526,87.699 353.888,87.699 C354.251,87.699 354.51,87.44 354.51,87.052 L354.51,79.956 C354.51,77.211 356.504,75.242 359.094,75.242 C361.761,75.242 363.289,77.029 363.289,79.749 L363.289,87.052 C363.289,87.44 363.574,87.699 363.937,87.699 C364.299,87.699 364.558,87.44 364.558,87.052 L364.558,79.516 C364.558,76.356 362.616,74.077 359.275,74.077 C356.867,74.077 355.39,75.294 354.51,76.848 L354.51,74.931 C354.51,74.543 354.225,74.284 353.862,74.284 C353.5,74.284 353.241,74.569 353.241,74.931 L353.241,87.052" id="Fill-36" fill="#010604" sketch:type="MSShapeGroup"></path>
            <path d="M372.82,87.829 C373.571,87.829 374.167,87.673 374.685,87.492 C374.944,87.389 375.099,87.207 375.099,86.948 C375.099,86.638 374.814,86.379 374.529,86.379 C374.348,86.379 373.934,86.638 373.027,86.638 C371.499,86.638 370.385,85.964 370.385,84.074 L370.385,75.553 L374.529,75.553 C374.84,75.553 375.125,75.294 375.125,74.983 C375.125,74.673 374.84,74.388 374.529,74.388 L370.385,74.388 L370.385,70.71 C370.385,70.348 370.1,70.063 369.738,70.063 C369.375,70.063 369.117,70.348 369.117,70.71 L369.117,74.388 L367.692,74.388 C367.381,74.388 367.096,74.647 367.096,74.958 C367.096,75.268 367.381,75.553 367.692,75.553 L369.117,75.553 L369.117,84.203 C369.117,86.715 370.774,87.829 372.82,87.829" id="Fill-37" fill="#010604" sketch:type="MSShapeGroup"></path>
            <path d="M383.542,87.906 C387.478,87.906 390.353,84.695 390.353,80.992 L390.353,80.94 C390.353,77.237 387.504,74.077 383.594,74.077 C379.657,74.077 376.782,77.288 376.782,80.992 L376.782,81.044 C376.782,84.747 379.631,87.906 383.542,87.906 L383.542,87.906 Z M383.594,86.715 C380.538,86.715 378.155,84.177 378.155,80.992 L378.155,80.94 C378.155,77.832 380.408,75.268 383.542,75.268 C386.598,75.268 388.98,77.806 388.98,80.992 L388.98,81.044 C388.98,84.151 386.727,86.715 383.594,86.715 L383.594,86.715 Z" id="Fill-38" fill="#010604" sketch:type="MSShapeGroup"></path>
            <path d="M408.456,87.855 C411.952,87.855 414.464,85.835 414.464,82.908 L414.464,82.857 C414.464,80.215 412.703,78.713 408.508,77.858 C404.208,76.978 403.224,75.812 403.224,73.896 L403.224,73.844 C403.224,71.953 404.985,70.425 407.653,70.425 C409.492,70.425 411.071,70.917 412.651,72.134 C412.781,72.238 412.936,72.29 413.092,72.29 C413.454,72.29 413.765,71.979 413.765,71.617 C413.765,71.358 413.609,71.176 413.48,71.073 C411.823,69.83 410.139,69.208 407.705,69.208 C404.338,69.208 401.878,71.28 401.878,73.973 L401.878,74.025 C401.878,76.77 403.639,78.247 407.99,79.127 C412.107,79.956 413.117,81.07 413.117,82.986 L413.117,83.038 C413.117,85.11 411.253,86.638 408.534,86.638 C406.047,86.638 404.234,85.912 402.421,84.281 C402.318,84.203 402.163,84.125 401.981,84.125 C401.619,84.125 401.308,84.436 401.308,84.799 C401.308,85.032 401.437,85.213 401.567,85.317 C403.613,87 405.737,87.855 408.456,87.855" id="Fill-39" fill="#010604" sketch:type="MSShapeGroup"></path>
            <path d="M417.909,87.052 C417.909,87.44 418.193,87.699 418.556,87.699 C418.919,87.699 419.178,87.44 419.178,87.052 L419.178,79.956 C419.178,77.211 421.171,75.242 423.761,75.242 C426.429,75.242 427.957,77.029 427.957,79.749 L427.957,87.052 C427.957,87.44 428.242,87.699 428.605,87.699 C428.967,87.699 429.226,87.44 429.226,87.052 L429.226,79.516 C429.226,76.356 427.284,74.077 423.943,74.077 C421.534,74.077 420.058,75.294 419.178,76.848 L419.178,69.234 C419.178,68.872 418.893,68.587 418.53,68.587 C418.167,68.587 417.909,68.872 417.909,69.234 L417.909,87.052" id="Fill-40" fill="#010604" sketch:type="MSShapeGroup"></path>
            <path d="M437.099,87.906 C439.611,87.906 441.243,86.663 442.149,85.394 L442.149,87.052 C442.149,87.44 442.408,87.699 442.771,87.699 C443.133,87.699 443.392,87.44 443.392,87.052 L443.392,79.36 C443.392,77.729 442.926,76.511 442.046,75.631 C441.087,74.673 439.663,74.181 437.876,74.181 C436.193,74.181 434.872,74.569 433.525,75.165 C433.396,75.216 433.163,75.424 433.163,75.735 C433.163,76.045 433.447,76.33 433.758,76.33 C433.836,76.33 433.94,76.304 434.043,76.252 C435.131,75.735 436.348,75.372 437.798,75.372 C440.518,75.372 442.149,76.745 442.149,79.412 L442.149,79.982 C440.88,79.645 439.611,79.412 437.772,79.412 C434.354,79.412 431.997,80.966 431.997,83.711 L431.997,83.763 C431.997,86.508 434.639,87.906 437.099,87.906 L437.099,87.906 Z M437.177,86.715 C435.157,86.715 433.344,85.602 433.344,83.685 L433.344,83.633 C433.344,81.795 434.898,80.551 437.695,80.551 C439.585,80.551 441.062,80.862 442.175,81.147 L442.175,82.649 C442.175,85.058 439.87,86.715 437.177,86.715 L437.177,86.715 Z" id="Fill-41" fill="#010604" sketch:type="MSShapeGroup"></path>
            <path d="M447.251,91.196 C447.251,91.584 447.536,91.843 447.898,91.843 C448.261,91.843 448.52,91.584 448.52,91.196 L448.52,84.747 C449.608,86.404 451.317,87.906 453.959,87.906 C457.144,87.906 460.381,85.291 460.381,80.992 L460.381,80.94 C460.381,76.641 457.144,74.077 453.959,74.077 C451.343,74.077 449.66,75.605 448.52,77.34 L448.52,74.931 C448.52,74.543 448.235,74.284 447.872,74.284 C447.51,74.284 447.251,74.543 447.251,74.931 L447.251,91.196 L447.251,91.196 Z M453.829,86.689 C451.084,86.689 448.442,84.41 448.442,81.018 L448.442,80.966 C448.442,77.599 451.084,75.294 453.829,75.294 C456.6,75.294 459.009,77.521 459.009,80.992 L459.009,81.044 C459.009,84.592 456.704,86.689 453.829,86.689 L453.829,86.689 Z" id="Fill-42" fill="#010604" sketch:type="MSShapeGroup"></path>
            <path d="M464.085,80.37 C464.318,77.444 466.338,75.242 468.954,75.242 C471.984,75.242 473.512,77.703 473.693,80.37 L464.085,80.37 L464.085,80.37 Z M474.366,85.757 C474.522,85.602 474.574,85.446 474.574,85.317 C474.574,84.98 474.289,84.721 473.952,84.721 C473.771,84.721 473.641,84.799 473.538,84.902 C472.476,85.938 471.155,86.715 469.265,86.715 C466.675,86.715 464.318,84.799 464.085,81.51 L474.444,81.51 C474.755,81.51 475.066,81.225 475.066,80.914 C475.066,77.133 472.709,74.077 469.006,74.077 C465.432,74.077 462.738,77.133 462.738,80.966 L462.738,81.018 C462.738,85.136 465.742,87.906 469.213,87.906 C471.595,87.906 473.072,87.052 474.366,85.757 L474.366,85.757 Z" id="Fill-43" fill="#010604" sketch:type="MSShapeGroup"></path>
            <path d="M527.893,83.94 L527.893,84.008 C527.893,85.641 529.152,86.9 530.853,86.9 C532.554,86.9 533.813,85.641 533.813,84.008 L533.813,83.94 C533.813,82.307 532.554,81.049 530.853,81.049 C529.152,81.049 527.893,82.307 527.893,83.94" id="Fill-44" fill="#333433" sketch:type="MSShapeGroup"></path>
            <path d="M542.181,87.104 C545.175,87.104 547.114,86.152 548.645,84.757 C549.087,84.348 549.394,83.804 549.394,83.124 C549.394,81.899 548.441,80.913 547.216,80.913 C546.604,80.913 546.094,81.185 545.822,81.389 C544.835,82.171 543.78,82.647 542.419,82.647 C539.596,82.647 537.793,80.402 537.793,77.613 L537.793,77.545 C537.793,74.857 539.63,72.578 542.215,72.578 C543.576,72.578 544.529,73.02 545.447,73.734 C545.754,73.973 546.264,74.245 546.944,74.245 C548.237,74.245 549.292,73.224 549.292,71.931 C549.292,71.047 548.815,70.435 548.475,70.162 C546.944,68.87 545.005,68.121 542.249,68.121 C536.67,68.121 532.69,72.408 532.69,77.613 L532.69,77.681 C532.69,82.886 536.704,87.104 542.181,87.104" id="Fill-45" fill="#333433" sketch:type="MSShapeGroup"></path>
            <path d="M557.66,87.104 C563.341,87.104 567.56,82.852 567.56,77.613 L567.56,77.545 C567.56,72.306 563.375,68.121 557.728,68.121 C552.047,68.121 547.829,72.374 547.829,77.613 L547.829,77.681 C547.829,82.92 552.013,87.104 557.66,87.104 L557.66,87.104 Z M557.728,82.647 C554.871,82.647 552.931,80.3 552.931,77.613 L552.931,77.545 C552.931,74.857 554.701,72.578 557.66,72.578 C560.518,72.578 562.457,74.925 562.457,77.613 L562.457,77.681 C562.457,80.368 560.688,82.647 557.728,82.647 L557.728,82.647 Z" id="Fill-46" fill="#333433" sketch:type="MSShapeGroup"></path>
            <path d="M567.526,84.314 C567.526,85.743 568.683,86.9 570.112,86.9 C571.54,86.9 572.697,85.743 572.697,84.314 L572.697,76.524 C572.697,74.075 573.888,72.816 575.827,72.816 C577.766,72.816 578.855,74.075 578.855,76.524 L578.855,84.314 C578.855,85.743 580.011,86.9 581.44,86.9 C582.869,86.9 584.026,85.743 584.026,84.314 L584.026,76.524 C584.026,74.075 585.216,72.816 587.155,72.816 C589.094,72.816 590.183,74.075 590.183,76.524 L590.183,84.314 C590.183,85.743 591.34,86.9 592.769,86.9 C594.197,86.9 595.354,85.743 595.354,84.314 L595.354,74.823 C595.354,70.435 593.041,68.121 589.196,68.121 C586.713,68.121 584.808,69.142 583.209,71.013 C582.257,69.176 580.454,68.121 578.072,68.121 C575.453,68.121 573.888,69.516 572.697,71.047 L572.697,70.843 C572.697,69.414 571.54,68.257 570.112,68.257 C568.683,68.257 567.526,69.414 567.526,70.843 L567.526,84.314" id="Fill-47" fill="#333433" sketch:type="MSShapeGroup"></path>
            <path d="M65.049,84.918 C82.341,84.918 96.36,83.937 96.36,82.727 C96.36,81.517 82.341,80.535 65.049,80.535 C47.756,80.535 33.738,81.517 33.738,82.727 C33.738,83.937 47.756,84.918 65.049,84.918" id="Fill-48" fill="#626362" sketch:type="MSShapeGroup"></path>
        </g>
    </g>
</svg>